<?xml version="1.0" encoding="iso-8859-1"?>
<svg version="1.1" xmlns="http://www.w3.org/2000/svg" xmlns:xlink="http://www.w3.org/1999/xlink" x="0px" y="0px" viewBox="0 0 480.011 480.011" style="enable-background:new 0 0 480.011 480.011;" xml:space="preserve">
    <path d="M7.873,239.899h0.28c4.314,0.003,7.853-3.416,8-7.728C20.481,108.535,124.216,11.817,247.852,16.144c47.556,1.665,93.346,18.43,130.733,47.867h-42.576c-4.418,0-8,3.582-8,8s3.582,8,8,8h64h0.112c0.626-0.051,1.243-0.174,1.84-0.368c0.409-0.059,0.812-0.147,1.208-0.264c0.224-0.096,0.392-0.296,0.608-0.416c0.718-0.351,1.377-0.813,1.952-1.368l0.08-0.056c0.203-0.278,0.388-0.569,0.552-0.872c0.419-0.51,0.772-1.072,1.048-1.672c0.22-0.638,0.355-1.302,0.4-1.976c0.092-0.33,0.159-0.667,0.2-1.008v-64c0-4.418-3.582-8-8-8s-8,3.582-8,8v46.336C289.508-29.635,138.332-14.623,54.35,87.879C21.017,128.563,1.975,179.072,0.153,231.635C0.005,236.048,3.46,239.747,7.873,239.899z"/>
    <path d="M72.641,388.883c-2.936-3.314-8.002-3.62-11.316-0.684c-3.314,2.936-3.62,8.002-0.684,11.316c5.507,6.18,11.325,12.076,17.432,17.664c3.321,2.915,8.375,2.585,11.29-0.735c2.832-3.227,2.612-8.113-0.498-11.073C83.179,400.156,77.764,394.653,72.641,388.883z"/>
    <path d="M168.113,452.227c-7.314-2.476-14.494-5.331-21.512-8.552c-3.959-1.961-8.759-0.341-10.72,3.618c-1.961,3.959-0.341,8.759,3.618,10.72c0.136,0.067,0.274,0.131,0.414,0.19c7.524,3.464,15.226,6.529,23.072,9.184c4.186,1.416,8.728-0.83,10.144-5.016C174.546,458.185,172.3,453.643,168.113,452.227z"/>
    <path d="M126.089,432.923v-0.008c-6.649-3.939-13.094-8.211-19.312-12.8c-3.469-2.737-8.499-2.143-11.236,1.326c-2.737,3.469-2.143,8.499,1.326,11.236c0.13,0.102,0.262,0.201,0.398,0.295c6.65,4.923,13.547,9.502,20.664,13.72c3.802,2.253,8.711,0.998,10.964-2.804C131.147,440.085,129.891,435.176,126.089,432.923z"/>
    <path d="M58.153,370.827c-4.51-6.27-8.696-12.767-12.544-19.464c-2.209-3.833-7.107-5.149-10.94-2.94c-3.833,2.209-5.149,7.107-2.94,10.94c4.122,7.161,8.608,14.106,13.44,20.808c2.653,3.533,7.668,4.246,11.201,1.593C59.802,379.187,60.589,374.361,58.153,370.827z"/>
    <path d="M35.839,334.017c0-1.115-0.234-2.218-0.685-3.237l-0.016-0.056c-3.131-7.052-5.895-14.262-8.28-21.6c-1.16-4.263-5.557-6.779-9.82-5.618c-4.263,1.16-6.779,5.557-5.618,9.82c0.068,0.248,0.147,0.493,0.238,0.734c2.553,7.881,5.512,15.625,8.864,23.2c1.283,2.896,4.153,4.762,7.32,4.76C32.26,342.018,35.84,338.435,35.839,334.017z"/>
    <path d="M14.717,296.22c0.001,0,0.003-0.001,0.004-0.001v0c4.317-0.92,7.073-5.162,6.16-9.48c-1.594-7.557-2.801-15.191-3.616-22.872c-0.466-4.396-4.408-7.582-8.804-7.116s-7.582,4.408-7.116,8.804c0.876,8.227,2.173,16.403,3.888,24.496C6.149,294.374,10.395,297.135,14.717,296.22z"/>
    <path d="M467.219,288.053c-0.003-0.001-0.006-0.001-0.009-0.002c-4.288-1.062-8.625,1.552-9.688,5.84c-1.854,7.5-4.094,14.899-6.712,22.168c-1.498,4.158,0.658,8.742,4.816,10.24c4.158,1.498,8.742-0.658,10.24-4.816c2.807-7.785,5.21-15.711,7.2-23.744C474.126,293.45,471.508,289.114,467.219,288.053z"/>
    <path d="M213.217,462.411c-7.668-0.913-15.283-2.221-22.816-3.92c-4.31-0.974-8.594,1.73-9.568,6.04c-0.974,4.31,1.73,8.594,6.04,9.568c8.074,1.82,16.237,3.222,24.456,4.2c0.319,0.039,0.639,0.057,0.96,0.056c4.418-0.009,7.992-3.599,7.983-8.017C220.264,466.292,217.236,462.889,213.217,462.411z"/>
    <path d="M452.466,333.683C452.466,333.683,452.466,333.683,452.466,333.683c-3.977-1.92-8.757-0.255-10.681,3.72c-3.363,6.954-7.085,13.729-11.152,20.296c-2.262,3.796-1.018,8.706,2.778,10.967c3.703,2.207,8.49,1.082,10.822-2.543c4.354-7.039,8.341-14.3,11.944-21.752C458.104,340.395,456.442,335.61,452.466,333.683z"/>
    <path d="M428.831,375.29c-3.458-2.75-8.491-2.176-11.241,1.283c-0.048,0.06-0.095,0.121-0.141,0.182l0-0.016c-4.72,6.123-9.753,11.997-15.08,17.6c-3.046,3.203-2.919,8.27,0.284,11.316c3.203,3.046,8.27,2.919,11.316-0.284c5.696-6.003,11.085-12.291,16.144-18.84C432.863,383.073,432.289,378.04,428.831,375.29z"/>
    <path d="M472.145,240.387c-4.346-0.222-8.05,3.122-8.271,7.468c-0.004,0.081-0.007,0.163-0.009,0.244c-0.271,7.72-0.942,15.421-2.008,23.072c-0.603,4.371,2.447,8.404,6.816,9.016c0.371,0.054,0.745,0.081,1.12,0.08c3.987-0.006,7.362-2.947,7.912-6.896c1.139-8.195,1.857-16.443,2.152-24.712C480.01,244.246,476.559,240.543,472.145,240.387z"/>
    <path d="M385.609,410.251v0.024c-5.888,5.026-12.029,9.747-18.4,14.144c-3.643,2.518-4.554,7.513-2.036,11.156c2.518,3.643,7.513,4.554,11.156,2.036c6.813-4.731,13.381-9.804,19.68-15.2c3.358-2.872,3.752-7.922,0.88-11.28C394.018,407.773,388.967,407.379,385.609,410.251z"/>
    <path d="M304.897,454.475L304.897,454.475c-7.393,2.228-14.896,4.07-22.48,5.52c-4.339,0.835-7.18,5.028-6.345,9.367c0.723,3.761,4.011,6.482,7.841,6.489c0.507,0.002,1.013-0.044,1.512-0.136c8.13-1.554,16.173-3.532,24.096-5.928c4.196-1.383,6.477-5.906,5.094-10.102C313.281,455.637,309.007,453.346,304.897,454.475z"/>
    <path d="M259.889,463.142c-0.147,0.008-0.293,0.021-0.439,0.037l0.04,0.032c-6.4,0.544-12.952,0.8-19.48,0.8h-3.656c-4.363,0.062-7.929,3.498-8.152,7.856c-0.08,4.418,3.436,8.064,7.853,8.144c0.001,0,0.002,0,0.003,0h3.952c6.992,0,14-0.312,20.8-0.896c4.411-0.254,7.781-4.036,7.526-8.447C268.081,466.257,264.299,462.887,259.889,463.142z"/>
    <path d="M347.521,436.563h0.008c-6.773,3.709-13.731,7.068-20.848,10.064c-4.094,1.661-6.067,6.326-4.407,10.42s6.326,6.067,10.42,4.407c0.06-0.024,0.119-0.049,0.178-0.075c7.626-3.209,15.081-6.808,22.336-10.784c3.875-2.123,5.295-6.985,3.172-10.86C356.259,435.86,351.396,434.44,347.521,436.563z"/>
    <path d="M240.009,72.011c-92.784,0-168,75.216-168,168s75.216,168,168,168s168-75.216,168-168C407.904,147.271,332.749,72.117,240.009,72.011z M368.009,248.011h23.592c-4.156,77.517-66.075,139.436-143.592,143.592v-23.592c0-4.418-3.582-8-8-8s-8,3.582-8,8v23.592c-77.517-4.156-139.436-66.075-143.592-143.592h23.592c4.418,0,8-3.582,8-8s-3.582-8-8-8H88.417c4.156-77.517,66.075-139.436,143.592-143.592v23.592c0,4.418,3.582,8,8,8s8-3.582,8-8V88.419c77.517,4.156,139.436,66.075,143.592,143.592h-23.592c-4.418,0-8,3.582-8,8S363.591,248.011,368.009,248.011z"/>
    <path d="M248.009,217.483v-73.472c0-4.418-3.582-8-8-8s-8,3.582-8,8v73.472c-6.775,2.42-12.108,7.753-14.528,14.528h-41.472c-4.418,0-8,3.582-8,8s3.582,8,8,8h41.472c4.384,12.476,18.052,19.036,30.528,14.652c12.476-4.384,19.036-18.052,14.652-30.528C260.253,225.281,254.863,219.892,248.009,217.483z M240.009,248.011c-4.418,0-8-3.582-8-8s3.582-8,8-8s8,3.582,8,8S244.428,248.011,240.009,248.011z"/>
</svg>